<svg width="35" height="35" viewBox="0 0 35 35" fill="none" xmlns="http://www.w3.org/2000/svg">
<rect width="35" height="35" fill="#6D5BD0"/>
<path d="M22.5 17H18.5C18.2349 17.0003 17.9807 17.1057 17.7932 17.2932C17.6057 17.4807 17.5003 17.7349 17.5 18V21H12V16H11V24H12V22H24V24H25V19.5C24.9992 18.8372 24.7356 18.2018 24.2669 17.7331C23.7982 17.2644 23.1628 17.0008 22.5 17V17ZM24 21H18.5V18H22.5C22.8977 18.0004 23.279 18.1586 23.5602 18.4398C23.8414 18.721 23.9996 19.1023 24 19.5V21Z" fill="white"/>
<path d="M14.75 17.5C14.8983 17.5 15.0433 17.544 15.1667 17.6264C15.29 17.7088 15.3861 17.8259 15.4429 17.963C15.4997 18.1 15.5145 18.2508 15.4856 18.3963C15.4567 18.5418 15.3852 18.6754 15.2803 18.7803C15.1754 18.8852 15.0418 18.9567 14.8963 18.9856C14.7508 19.0145 14.6 18.9997 14.463 18.9429C14.3259 18.8861 14.2088 18.79 14.1264 18.6667C14.044 18.5433 14 18.3983 14 18.25C14.0003 18.0512 14.0794 17.8606 14.22 17.72C14.3606 17.5794 14.5512 17.5003 14.75 17.5ZM14.75 16.5C14.4039 16.5 14.0655 16.6026 13.7778 16.7949C13.49 16.9872 13.2657 17.2605 13.1332 17.5803C13.0008 17.9001 12.9661 18.2519 13.0336 18.5914C13.1012 18.9309 13.2678 19.2427 13.5126 19.4874C13.7573 19.7322 14.0691 19.8989 14.4086 19.9664C14.7481 20.0339 15.0999 19.9992 15.4197 19.8668C15.7395 19.7343 16.0128 19.51 16.2051 19.2222C16.3974 18.9345 16.5 18.5961 16.5 18.25C16.5 17.7859 16.3156 17.3408 15.9874 17.0126C15.6592 16.6844 15.2141 16.5 14.75 16.5V16.5Z" fill="white"/>
<path d="M20.5 12H18.5V10H17.5V12H15.5V13H17.5V15H18.5V13H20.5V12Z" fill="white"/>
</svg>
